<svg
    data-name="MyChapman-Logo"
    xmlns="http://www.w3.org/2000/svg"
    viewBox="0 0 1220.26 195.83"
>
    <g data-name="Chapman">
        <path
            d="M372.71 145.37c-9.72 10.11-26.62 23.52-55.58 23.52-33.82 0-63.94-23.91-63.94-70.36 0-43.34 32.65-70.16 63.35-70.16 24.49 0 42.18 8.75 54.81 20.41l-13 27c-12.44-11.27-23.32-18.07-41-18.07-18.66 0-34.59 15.74-34.59 41.2 0 25.07 16.13 41.59 34.4 41.59 17.88 0 29.54-9.13 41.78-20.41zM468.72 167.14v-51.51h-48v51.51H390.2V30.9h30.71v55.39h47.81V30.9h30.51v136.24zM617.59 167.14l-9.33-25.46h-54l-10.3 25.46h-29.77l56.56-136.63h23.32l54 136.63zm-36.15-95.82l-16.91 42.76h33.43zM915.32 167.14l-6.8-71.91-41.59 69.75h-12.24l-35.38-68.8-6.21 70.94h-28.77l9.72-136.24 23.9-.2 45.48 87.07 51.31-87.07 19.24.2 9.88 136.26zM1060.11 167.14l-9.33-25.46h-54l-10.3 25.46h-29.73l56.55-136.63h23.33l54 136.63zm-36.15-95.82l-16.91 42.76h33.43zM1205.68 167.14l-68.82-77.55c0 25.85-.2 51.89-.2 77.55h-29.35V30.9h18.27l65.5 74 .19-74h29v136.24zM721.31 128.63h-25.55v38.51h-30.38l.15-105.53h-19l-5.67-30.12h81c26.89 0 47 17.61 47 48.95.05 30.54-23 48.19-47.55 48.19zm-1.55-67h-24v38.75h22.45c13 0 21.67-8.91 21.67-19.55-.02-11.8-7.54-19.16-20.12-19.16z"
            fill="#231f20"
            class="hover-text"
        />
    </g>
    <g data-name="My">
        <path
            d="M4.79 136.57s3.47-4.08 5.71-3.67c-1.84 12.85 10 11.83 17.55 4.08 18.81-19 33.88-78.37 39.59-106.73-11.22 5.3-20.61 17.55-22 38.36-1.22 8.57-10.81 7.76-16.73 6.53C26.25 21.68 62.38 2.7 92.17 7.8a331.7 331.7 0 0 1 7.75 85.3c27.35-53.26 58.37-84.28 58.37-84.28a45.3 45.3 0 0 1 22.57 5.92c-19.18 38.77-29.79 75.3-33.26 109.38 0 18.57 21.42 5.1 26.32-12 0 0 3.27-.82 3.68 2-1.64 17.14-15.11 43.06-33.68 48.57a15.9 15.9 0 0 1-7.34 1.43c-22.25 0-15.72-46.53-3.47-89.39-22 34.49-39 78.16-39 78.16-13.26 3.88-17.14-4.69-17.14-4.69s5.3-38.16 2.65-75.3c-10.61 41.83-26.94 84.69-46.32 89.79-13.44 3.67-32.8-3.27-28.51-26.12z"
            fill="#fff"
        />
        <path
            d="M260.48 107.59s5.51-.61 5.51 5.51c-1.83 13.47-27.55 46.94-41.42 55.51-5.31 18-15.1 30.81-39.8 26.32-36.73-6.73-15.3-39.79 21.63-42 1.23-5.71 2.25-13.67 3.27-19.59l.61-2.24c-7.55 12.45-15.71 24.28-32 20-5.3-1.63-10.4-9-11.22-18.37-1.84-21.22 10-54.49 21.83-72.85 7.35-11.43 15.72-8.17 24.49-3.88-8 13.67-27.75 51.22-23.87 65.92.81 3.26 1.63 4.08 6.12 1.63 17.35-17.55 27.55-40.41 27.55-40.41 4.28-13.47 8.16-24.08 9.59-28.36 9-3.88 19-3.47 25.92 0-13.06 27.55-23.88 60.61-29 90.6 13.86-11.26 28.17-28.2 30.79-37.79zm-58.36 63.47c-6.74-1.64-17.35 1.22-18.78 7.75 16.74 6.17 18.78-7.75 18.78-7.75z"
            fill="#fff"
        />
        <path
            d="M.6 129.57s3.47-4.09 5.72-3.68c-1.84 12.86 10 11.84 17.55 4.08 18.77-19 33.87-78.36 39.59-106.72-11.23 5.3-20.61 17.55-22 38.36-1.23 8.57-10.82 7.76-16.74 6.53C22.07 14.67 58.19-4.3 87.98.8a331.64 331.64 0 0 1 7.76 85.3C123.09 32.84 154.1 1.82 154.1 1.82a45.23 45.23 0 0 1 22.66 5.92c-19.19 38.77-29.8 75.3-33.27 109.38 0 18.57 21.43 5.1 26.33-12 0 0 3.26-.82 3.67 2-1.63 17.14-15.1 43.06-33.67 48.57a16.08 16.08 0 0 1-7.35 1.43c-22.24 0-15.71-46.53-3.47-89.39-22 34.49-39 78.16-39 78.16-13.27 3.88-17.15-4.69-17.15-4.69s5.31-38.16 2.66-75.3c-10.62 41.83-26.94 84.69-46.33 89.79C15.7 159.36-3.68 152.42.6 129.57z"
            fill="#77171e"
        />
        <path
            d="M256.3 100.59s5.56-.61 5.56 5.51c-1.84 13.47-27.55 46.93-41.43 55.51-5.3 18-15.1 30.81-39.79 26.32-36.73-6.73-15.31-39.79 21.63-42 1.22-5.71 2.24-13.67 3.27-19.59l.61-2.24c-7.55 12.44-15.72 24.28-32 20-5.31-1.64-10.41-9-11.23-18.37-1.83-21.22 10-54.49 21.84-72.85 7.35-11.43 15.71-8.17 24.49-3.88-8 13.67-27.76 51.22-23.88 65.91.82 3.27 1.63 4.08 6.12 1.64 17.35-17.55 27.55-40.41 27.55-40.41 4.29-13.47 8.17-24.08 9.6-28.37 9-3.87 19-3.47 25.91 0-13.06 27.55-23.87 60.61-29 90.61 13.81-11.26 28.1-28.2 30.75-37.79zm-58.37 63.46c-6.73-1.63-17.34 1.23-18.77 7.76 16.7 6.17 18.77-7.76 18.77-7.76z"
            fill="#77171e"
        />
    </g>
</svg>
